<?xml version="1.0" standalone="no"?><!DOCTYPE svg PUBLIC "-//W3C//DTD SVG 1.1//EN" "http://www.w3.org/Graphics/SVG/1.1/DTD/svg11.dtd"><svg t="1615361277202" class="icon" viewBox="0 0 1024 1024" version="1.1" xmlns="http://www.w3.org/2000/svg" p-id="8967" width="200" height="200"><defs><style type="text/css"></style></defs><path d="M733.3 112H290.7c-69.9 0-126.5 51.2-126.5 114.3v571.4c0 63.1 56.6 114.3 126.5 114.3h442.7c69.9 0 126.5-51.2 126.5-114.3V226.3c-0.1-63.1-56.7-114.3-126.6-114.3z m57 677.8c0 30.7-27.7 55.5-61.8 55.5H295.6c-34.1 0-61.8-24.9-61.8-55.5V234.2c0-30.7 27.7-55.5 61.8-55.5h432.9c34.2 0 61.8 24.9 61.8 55.5v555.6z" p-id="8968"></path><path d="M685.9 245.3H338.1c-19.2 0-34.8 14.9-34.8 33.3s15.6 33.3 34.8 33.3h347.8c19.2 0 34.8-14.9 34.8-33.3 0-18.3-15.6-33.3-34.8-33.3zM546.8 412H338.1c-19.2 0-34.8 14.9-34.8 33.3s15.6 33.3 34.8 33.3h208.7c19.2 0 34.8-14.9 34.8-33.3S566 412 546.8 412z" p-id="8969"></path></svg>